<?xml version="1.0" encoding="utf-8" standalone="no"?>
<!DOCTYPE svg PUBLIC "-//W3C//DTD SVG 1.1//EN"
  "http://www.w3.org/Graphics/SVG/1.1/DTD/svg11.dtd">
<svg xmlns:xlink="http://www.w3.org/1999/xlink" width="576pt" height="360pt" viewBox="0 0 576 360" xmlns="http://www.w3.org/2000/svg" version="1.1">
 <metadata>
  <rdf:RDF xmlns:dc="http://purl.org/dc/elements/1.1/" xmlns:cc="http://creativecommons.org/ns#" xmlns:rdf="http://www.w3.org/1999/02/22-rdf-syntax-ns#">
   <cc:Work>
    <dc:type rdf:resource="http://purl.org/dc/dcmitype/StillImage"/>
    <dc:date>2025-06-03T09:40:00.802448</dc:date>
    <dc:format>image/svg+xml</dc:format>
    <dc:creator>
     <cc:Agent>
      <dc:title>Matplotlib v3.10.0, https://matplotlib.org/</dc:title>
     </cc:Agent>
    </dc:creator>
   </cc:Work>
  </rdf:RDF>
 </metadata>
 <defs>
  <style type="text/css">*{stroke-linejoin: round; stroke-linecap: butt}</style>
 </defs>
 <g id="figure_1">
  <g id="patch_1">
   <path d="M 0 360 
L 576 360 
L 576 0 
L 0 0 
z
" style="fill: #ffffff"/>
  </g>
  <g id="axes_1">
   <g id="patch_2">
    <path d="M 176.29 318.04 
L 565.2 318.04 
L 565.2 26.88 
L 176.29 26.88 
z
" style="fill: #ffffff"/>
   </g>
   <g id="patch_3">
    <path d="M 370.745 293.776667 
L 214.018067 293.776667 
L 214.018067 245.25 
L 370.745 245.25 
z
" clip-path="url(#p130b9280ed)" style="fill: #002546; stroke: #000000; stroke-linejoin: miter"/>
   </g>
   <g id="patch_4">
    <path d="M 370.745 196.723333 
L 248.930842 196.723333 
L 248.930842 148.196667 
L 370.745 148.196667 
z
" clip-path="url(#p130b9280ed)" style="fill: #002546; stroke: #000000; stroke-linejoin: miter"/>
   </g>
   <g id="patch_5">
    <path d="M 370.745 99.67 
L 331.565757 99.67 
L 331.565757 51.143333 
L 370.745 51.143333 
z
" clip-path="url(#p130b9280ed)" style="fill: #002546; stroke: #000000; stroke-linejoin: miter"/>
   </g>
   <g id="matplotlib.axis_1">
    <g id="xtick_1">
     <g id="line2d_1">
      <defs>
       <path id="mb6f4ce7475" d="M 0 0 
L 0 3.5 
" style="stroke: #000000; stroke-width: 0.8"/>
      </defs>
      <g>
       <use xlink:href="#mb6f4ce7475" x="219.832733" y="318.04" style="stroke: #000000; stroke-width: 0.8"/>
      </g>
     </g>
     <g id="text_1">
      <!-- −0.4 -->
      <g transform="translate(207.691326 332.638438) scale(0.1 -0.1)">
       <defs>
        <path id="DejaVuSans-2212" d="M 678 2272 
L 4684 2272 
L 4684 1741 
L 678 1741 
L 678 2272 
z
" transform="scale(0.015625)"/>
        <path id="DejaVuSans-30" d="M 2034 4250 
Q 1547 4250 1301 3770 
Q 1056 3291 1056 2328 
Q 1056 1369 1301 889 
Q 1547 409 2034 409 
Q 2525 409 2770 889 
Q 3016 1369 3016 2328 
Q 3016 3291 2770 3770 
Q 2525 4250 2034 4250 
z
M 2034 4750 
Q 2819 4750 3233 4129 
Q 3647 3509 3647 2328 
Q 3647 1150 3233 529 
Q 2819 -91 2034 -91 
Q 1250 -91 836 529 
Q 422 1150 422 2328 
Q 422 3509 836 4129 
Q 1250 4750 2034 4750 
z
" transform="scale(0.015625)"/>
        <path id="DejaVuSans-2e" d="M 684 794 
L 1344 794 
L 1344 0 
L 684 0 
L 684 794 
z
" transform="scale(0.015625)"/>
        <path id="DejaVuSans-34" d="M 2419 4116 
L 825 1625 
L 2419 1625 
L 2419 4116 
z
M 2253 4666 
L 3047 4666 
L 3047 1625 
L 3713 1625 
L 3713 1100 
L 3047 1100 
L 3047 0 
L 2419 0 
L 2419 1100 
L 313 1100 
L 313 1709 
L 2253 4666 
z
" transform="scale(0.015625)"/>
       </defs>
       <use xlink:href="#DejaVuSans-2212"/>
       <use xlink:href="#DejaVuSans-30" transform="translate(83.789062 0)"/>
       <use xlink:href="#DejaVuSans-2e" transform="translate(147.412109 0)"/>
       <use xlink:href="#DejaVuSans-34" transform="translate(179.199219 0)"/>
      </g>
     </g>
    </g>
    <g id="xtick_2">
     <g id="line2d_2">
      <g>
       <use xlink:href="#mb6f4ce7475" x="295.288866" y="318.04" style="stroke: #000000; stroke-width: 0.8"/>
      </g>
     </g>
     <g id="text_2">
      <!-- −0.2 -->
      <g transform="translate(283.14746 332.638438) scale(0.1 -0.1)">
       <defs>
        <path id="DejaVuSans-32" d="M 1228 531 
L 3431 531 
L 3431 0 
L 469 0 
L 469 531 
Q 828 903 1448 1529 
Q 2069 2156 2228 2338 
Q 2531 2678 2651 2914 
Q 2772 3150 2772 3378 
Q 2772 3750 2511 3984 
Q 2250 4219 1831 4219 
Q 1534 4219 1204 4116 
Q 875 4013 500 3803 
L 500 4441 
Q 881 4594 1212 4672 
Q 1544 4750 1819 4750 
Q 2544 4750 2975 4387 
Q 3406 4025 3406 3419 
Q 3406 3131 3298 2873 
Q 3191 2616 2906 2266 
Q 2828 2175 2409 1742 
Q 1991 1309 1228 531 
z
" transform="scale(0.015625)"/>
       </defs>
       <use xlink:href="#DejaVuSans-2212"/>
       <use xlink:href="#DejaVuSans-30" transform="translate(83.789062 0)"/>
       <use xlink:href="#DejaVuSans-2e" transform="translate(147.412109 0)"/>
       <use xlink:href="#DejaVuSans-32" transform="translate(179.199219 0)"/>
      </g>
     </g>
    </g>
    <g id="xtick_3">
     <g id="line2d_3">
      <g>
       <use xlink:href="#mb6f4ce7475" x="370.745" y="318.04" style="stroke: #000000; stroke-width: 0.8"/>
      </g>
     </g>
     <g id="text_3">
      <!-- 0.0 -->
      <g transform="translate(362.793437 332.638438) scale(0.1 -0.1)">
       <use xlink:href="#DejaVuSans-30"/>
       <use xlink:href="#DejaVuSans-2e" transform="translate(63.623047 0)"/>
       <use xlink:href="#DejaVuSans-30" transform="translate(95.410156 0)"/>
      </g>
     </g>
    </g>
    <g id="xtick_4">
     <g id="line2d_4">
      <g>
       <use xlink:href="#mb6f4ce7475" x="446.201134" y="318.04" style="stroke: #000000; stroke-width: 0.8"/>
      </g>
     </g>
     <g id="text_4">
      <!-- 0.2 -->
      <g transform="translate(438.249571 332.638438) scale(0.1 -0.1)">
       <use xlink:href="#DejaVuSans-30"/>
       <use xlink:href="#DejaVuSans-2e" transform="translate(63.623047 0)"/>
       <use xlink:href="#DejaVuSans-32" transform="translate(95.410156 0)"/>
      </g>
     </g>
    </g>
    <g id="xtick_5">
     <g id="line2d_5">
      <g>
       <use xlink:href="#mb6f4ce7475" x="521.657267" y="318.04" style="stroke: #000000; stroke-width: 0.8"/>
      </g>
     </g>
     <g id="text_5">
      <!-- 0.4 -->
      <g transform="translate(513.705705 332.638438) scale(0.1 -0.1)">
       <use xlink:href="#DejaVuSans-30"/>
       <use xlink:href="#DejaVuSans-2e" transform="translate(63.623047 0)"/>
       <use xlink:href="#DejaVuSans-34" transform="translate(95.410156 0)"/>
      </g>
     </g>
    </g>
    <g id="text_6">
     <!-- Correlation coefficient -->
     <g transform="translate(315.448906 346.316563) scale(0.1 -0.1)">
      <defs>
       <path id="DejaVuSans-43" d="M 4122 4306 
L 4122 3641 
Q 3803 3938 3442 4084 
Q 3081 4231 2675 4231 
Q 1875 4231 1450 3742 
Q 1025 3253 1025 2328 
Q 1025 1406 1450 917 
Q 1875 428 2675 428 
Q 3081 428 3442 575 
Q 3803 722 4122 1019 
L 4122 359 
Q 3791 134 3420 21 
Q 3050 -91 2638 -91 
Q 1578 -91 968 557 
Q 359 1206 359 2328 
Q 359 3453 968 4101 
Q 1578 4750 2638 4750 
Q 3056 4750 3426 4639 
Q 3797 4528 4122 4306 
z
" transform="scale(0.015625)"/>
       <path id="DejaVuSans-6f" d="M 1959 3097 
Q 1497 3097 1228 2736 
Q 959 2375 959 1747 
Q 959 1119 1226 758 
Q 1494 397 1959 397 
Q 2419 397 2687 759 
Q 2956 1122 2956 1747 
Q 2956 2369 2687 2733 
Q 2419 3097 1959 3097 
z
M 1959 3584 
Q 2709 3584 3137 3096 
Q 3566 2609 3566 1747 
Q 3566 888 3137 398 
Q 2709 -91 1959 -91 
Q 1206 -91 779 398 
Q 353 888 353 1747 
Q 353 2609 779 3096 
Q 1206 3584 1959 3584 
z
" transform="scale(0.015625)"/>
       <path id="DejaVuSans-72" d="M 2631 2963 
Q 2534 3019 2420 3045 
Q 2306 3072 2169 3072 
Q 1681 3072 1420 2755 
Q 1159 2438 1159 1844 
L 1159 0 
L 581 0 
L 581 3500 
L 1159 3500 
L 1159 2956 
Q 1341 3275 1631 3429 
Q 1922 3584 2338 3584 
Q 2397 3584 2469 3576 
Q 2541 3569 2628 3553 
L 2631 2963 
z
" transform="scale(0.015625)"/>
       <path id="DejaVuSans-65" d="M 3597 1894 
L 3597 1613 
L 953 1613 
Q 991 1019 1311 708 
Q 1631 397 2203 397 
Q 2534 397 2845 478 
Q 3156 559 3463 722 
L 3463 178 
Q 3153 47 2828 -22 
Q 2503 -91 2169 -91 
Q 1331 -91 842 396 
Q 353 884 353 1716 
Q 353 2575 817 3079 
Q 1281 3584 2069 3584 
Q 2775 3584 3186 3129 
Q 3597 2675 3597 1894 
z
M 3022 2063 
Q 3016 2534 2758 2815 
Q 2500 3097 2075 3097 
Q 1594 3097 1305 2825 
Q 1016 2553 972 2059 
L 3022 2063 
z
" transform="scale(0.015625)"/>
       <path id="DejaVuSans-6c" d="M 603 4863 
L 1178 4863 
L 1178 0 
L 603 0 
L 603 4863 
z
" transform="scale(0.015625)"/>
       <path id="DejaVuSans-61" d="M 2194 1759 
Q 1497 1759 1228 1600 
Q 959 1441 959 1056 
Q 959 750 1161 570 
Q 1363 391 1709 391 
Q 2188 391 2477 730 
Q 2766 1069 2766 1631 
L 2766 1759 
L 2194 1759 
z
M 3341 1997 
L 3341 0 
L 2766 0 
L 2766 531 
Q 2569 213 2275 61 
Q 1981 -91 1556 -91 
Q 1019 -91 701 211 
Q 384 513 384 1019 
Q 384 1609 779 1909 
Q 1175 2209 1959 2209 
L 2766 2209 
L 2766 2266 
Q 2766 2663 2505 2880 
Q 2244 3097 1772 3097 
Q 1472 3097 1187 3025 
Q 903 2953 641 2809 
L 641 3341 
Q 956 3463 1253 3523 
Q 1550 3584 1831 3584 
Q 2591 3584 2966 3190 
Q 3341 2797 3341 1997 
z
" transform="scale(0.015625)"/>
       <path id="DejaVuSans-74" d="M 1172 4494 
L 1172 3500 
L 2356 3500 
L 2356 3053 
L 1172 3053 
L 1172 1153 
Q 1172 725 1289 603 
Q 1406 481 1766 481 
L 2356 481 
L 2356 0 
L 1766 0 
Q 1100 0 847 248 
Q 594 497 594 1153 
L 594 3053 
L 172 3053 
L 172 3500 
L 594 3500 
L 594 4494 
L 1172 4494 
z
" transform="scale(0.015625)"/>
       <path id="DejaVuSans-69" d="M 603 3500 
L 1178 3500 
L 1178 0 
L 603 0 
L 603 3500 
z
M 603 4863 
L 1178 4863 
L 1178 4134 
L 603 4134 
L 603 4863 
z
" transform="scale(0.015625)"/>
       <path id="DejaVuSans-6e" d="M 3513 2113 
L 3513 0 
L 2938 0 
L 2938 2094 
Q 2938 2591 2744 2837 
Q 2550 3084 2163 3084 
Q 1697 3084 1428 2787 
Q 1159 2491 1159 1978 
L 1159 0 
L 581 0 
L 581 3500 
L 1159 3500 
L 1159 2956 
Q 1366 3272 1645 3428 
Q 1925 3584 2291 3584 
Q 2894 3584 3203 3211 
Q 3513 2838 3513 2113 
z
" transform="scale(0.015625)"/>
       <path id="DejaVuSans-20" transform="scale(0.015625)"/>
       <path id="DejaVuSans-63" d="M 3122 3366 
L 3122 2828 
Q 2878 2963 2633 3030 
Q 2388 3097 2138 3097 
Q 1578 3097 1268 2742 
Q 959 2388 959 1747 
Q 959 1106 1268 751 
Q 1578 397 2138 397 
Q 2388 397 2633 464 
Q 2878 531 3122 666 
L 3122 134 
Q 2881 22 2623 -34 
Q 2366 -91 2075 -91 
Q 1284 -91 818 406 
Q 353 903 353 1747 
Q 353 2603 823 3093 
Q 1294 3584 2113 3584 
Q 2378 3584 2631 3529 
Q 2884 3475 3122 3366 
z
" transform="scale(0.015625)"/>
       <path id="DejaVuSans-66" d="M 2375 4863 
L 2375 4384 
L 1825 4384 
Q 1516 4384 1395 4259 
Q 1275 4134 1275 3809 
L 1275 3500 
L 2222 3500 
L 2222 3053 
L 1275 3053 
L 1275 0 
L 697 0 
L 697 3053 
L 147 3053 
L 147 3500 
L 697 3500 
L 697 3744 
Q 697 4328 969 4595 
Q 1241 4863 1831 4863 
L 2375 4863 
z
" transform="scale(0.015625)"/>
      </defs>
      <use xlink:href="#DejaVuSans-43"/>
      <use xlink:href="#DejaVuSans-6f" transform="translate(69.824219 0)"/>
      <use xlink:href="#DejaVuSans-72" transform="translate(131.005859 0)"/>
      <use xlink:href="#DejaVuSans-72" transform="translate(170.369141 0)"/>
      <use xlink:href="#DejaVuSans-65" transform="translate(209.232422 0)"/>
      <use xlink:href="#DejaVuSans-6c" transform="translate(270.755859 0)"/>
      <use xlink:href="#DejaVuSans-61" transform="translate(298.539062 0)"/>
      <use xlink:href="#DejaVuSans-74" transform="translate(359.818359 0)"/>
      <use xlink:href="#DejaVuSans-69" transform="translate(399.027344 0)"/>
      <use xlink:href="#DejaVuSans-6f" transform="translate(426.810547 0)"/>
      <use xlink:href="#DejaVuSans-6e" transform="translate(487.992188 0)"/>
      <use xlink:href="#DejaVuSans-20" transform="translate(551.371094 0)"/>
      <use xlink:href="#DejaVuSans-63" transform="translate(583.158203 0)"/>
      <use xlink:href="#DejaVuSans-6f" transform="translate(638.138672 0)"/>
      <use xlink:href="#DejaVuSans-65" transform="translate(699.320312 0)"/>
      <use xlink:href="#DejaVuSans-66" transform="translate(760.84375 0)"/>
      <use xlink:href="#DejaVuSans-66" transform="translate(796.048828 0)"/>
      <use xlink:href="#DejaVuSans-69" transform="translate(831.253906 0)"/>
      <use xlink:href="#DejaVuSans-63" transform="translate(859.037109 0)"/>
      <use xlink:href="#DejaVuSans-69" transform="translate(914.017578 0)"/>
      <use xlink:href="#DejaVuSans-65" transform="translate(941.800781 0)"/>
      <use xlink:href="#DejaVuSans-6e" transform="translate(1003.324219 0)"/>
      <use xlink:href="#DejaVuSans-74" transform="translate(1066.703125 0)"/>
     </g>
    </g>
   </g>
   <g id="matplotlib.axis_2">
    <g id="ytick_1">
     <g id="line2d_6">
      <defs>
       <path id="ma27dc07f95" d="M 0 0 
L -3.5 0 
" style="stroke: #000000; stroke-width: 0.8"/>
      </defs>
      <g>
       <use xlink:href="#ma27dc07f95" x="176.29" y="269.513333" style="stroke: #000000; stroke-width: 0.8"/>
      </g>
     </g>
     <g id="text_7">
      <!-- Mean wind speed pr. hour (m/s) -->
      <g transform="translate(10.54625 273.312552) scale(0.1 -0.1)">
       <defs>
        <path id="DejaVuSans-4d" d="M 628 4666 
L 1569 4666 
L 2759 1491 
L 3956 4666 
L 4897 4666 
L 4897 0 
L 4281 0 
L 4281 4097 
L 3078 897 
L 2444 897 
L 1241 4097 
L 1241 0 
L 628 0 
L 628 4666 
z
" transform="scale(0.015625)"/>
        <path id="DejaVuSans-77" d="M 269 3500 
L 844 3500 
L 1563 769 
L 2278 3500 
L 2956 3500 
L 3675 769 
L 4391 3500 
L 4966 3500 
L 4050 0 
L 3372 0 
L 2619 2869 
L 1863 0 
L 1184 0 
L 269 3500 
z
" transform="scale(0.015625)"/>
        <path id="DejaVuSans-64" d="M 2906 2969 
L 2906 4863 
L 3481 4863 
L 3481 0 
L 2906 0 
L 2906 525 
Q 2725 213 2448 61 
Q 2172 -91 1784 -91 
Q 1150 -91 751 415 
Q 353 922 353 1747 
Q 353 2572 751 3078 
Q 1150 3584 1784 3584 
Q 2172 3584 2448 3432 
Q 2725 3281 2906 2969 
z
M 947 1747 
Q 947 1113 1208 752 
Q 1469 391 1925 391 
Q 2381 391 2643 752 
Q 2906 1113 2906 1747 
Q 2906 2381 2643 2742 
Q 2381 3103 1925 3103 
Q 1469 3103 1208 2742 
Q 947 2381 947 1747 
z
" transform="scale(0.015625)"/>
        <path id="DejaVuSans-73" d="M 2834 3397 
L 2834 2853 
Q 2591 2978 2328 3040 
Q 2066 3103 1784 3103 
Q 1356 3103 1142 2972 
Q 928 2841 928 2578 
Q 928 2378 1081 2264 
Q 1234 2150 1697 2047 
L 1894 2003 
Q 2506 1872 2764 1633 
Q 3022 1394 3022 966 
Q 3022 478 2636 193 
Q 2250 -91 1575 -91 
Q 1294 -91 989 -36 
Q 684 19 347 128 
L 347 722 
Q 666 556 975 473 
Q 1284 391 1588 391 
Q 1994 391 2212 530 
Q 2431 669 2431 922 
Q 2431 1156 2273 1281 
Q 2116 1406 1581 1522 
L 1381 1569 
Q 847 1681 609 1914 
Q 372 2147 372 2553 
Q 372 3047 722 3315 
Q 1072 3584 1716 3584 
Q 2034 3584 2315 3537 
Q 2597 3491 2834 3397 
z
" transform="scale(0.015625)"/>
        <path id="DejaVuSans-70" d="M 1159 525 
L 1159 -1331 
L 581 -1331 
L 581 3500 
L 1159 3500 
L 1159 2969 
Q 1341 3281 1617 3432 
Q 1894 3584 2278 3584 
Q 2916 3584 3314 3078 
Q 3713 2572 3713 1747 
Q 3713 922 3314 415 
Q 2916 -91 2278 -91 
Q 1894 -91 1617 61 
Q 1341 213 1159 525 
z
M 3116 1747 
Q 3116 2381 2855 2742 
Q 2594 3103 2138 3103 
Q 1681 3103 1420 2742 
Q 1159 2381 1159 1747 
Q 1159 1113 1420 752 
Q 1681 391 2138 391 
Q 2594 391 2855 752 
Q 3116 1113 3116 1747 
z
" transform="scale(0.015625)"/>
        <path id="DejaVuSans-68" d="M 3513 2113 
L 3513 0 
L 2938 0 
L 2938 2094 
Q 2938 2591 2744 2837 
Q 2550 3084 2163 3084 
Q 1697 3084 1428 2787 
Q 1159 2491 1159 1978 
L 1159 0 
L 581 0 
L 581 4863 
L 1159 4863 
L 1159 2956 
Q 1366 3272 1645 3428 
Q 1925 3584 2291 3584 
Q 2894 3584 3203 3211 
Q 3513 2838 3513 2113 
z
" transform="scale(0.015625)"/>
        <path id="DejaVuSans-75" d="M 544 1381 
L 544 3500 
L 1119 3500 
L 1119 1403 
Q 1119 906 1312 657 
Q 1506 409 1894 409 
Q 2359 409 2629 706 
Q 2900 1003 2900 1516 
L 2900 3500 
L 3475 3500 
L 3475 0 
L 2900 0 
L 2900 538 
Q 2691 219 2414 64 
Q 2138 -91 1772 -91 
Q 1169 -91 856 284 
Q 544 659 544 1381 
z
M 1991 3584 
L 1991 3584 
z
" transform="scale(0.015625)"/>
        <path id="DejaVuSans-28" d="M 1984 4856 
Q 1566 4138 1362 3434 
Q 1159 2731 1159 2009 
Q 1159 1288 1364 580 
Q 1569 -128 1984 -844 
L 1484 -844 
Q 1016 -109 783 600 
Q 550 1309 550 2009 
Q 550 2706 781 3412 
Q 1013 4119 1484 4856 
L 1984 4856 
z
" transform="scale(0.015625)"/>
        <path id="DejaVuSans-6d" d="M 3328 2828 
Q 3544 3216 3844 3400 
Q 4144 3584 4550 3584 
Q 5097 3584 5394 3201 
Q 5691 2819 5691 2113 
L 5691 0 
L 5113 0 
L 5113 2094 
Q 5113 2597 4934 2840 
Q 4756 3084 4391 3084 
Q 3944 3084 3684 2787 
Q 3425 2491 3425 1978 
L 3425 0 
L 2847 0 
L 2847 2094 
Q 2847 2600 2669 2842 
Q 2491 3084 2119 3084 
Q 1678 3084 1418 2786 
Q 1159 2488 1159 1978 
L 1159 0 
L 581 0 
L 581 3500 
L 1159 3500 
L 1159 2956 
Q 1356 3278 1631 3431 
Q 1906 3584 2284 3584 
Q 2666 3584 2933 3390 
Q 3200 3197 3328 2828 
z
" transform="scale(0.015625)"/>
        <path id="DejaVuSans-2f" d="M 1625 4666 
L 2156 4666 
L 531 -594 
L 0 -594 
L 1625 4666 
z
" transform="scale(0.015625)"/>
        <path id="DejaVuSans-29" d="M 513 4856 
L 1013 4856 
Q 1481 4119 1714 3412 
Q 1947 2706 1947 2009 
Q 1947 1309 1714 600 
Q 1481 -109 1013 -844 
L 513 -844 
Q 928 -128 1133 580 
Q 1338 1288 1338 2009 
Q 1338 2731 1133 3434 
Q 928 4138 513 4856 
z
" transform="scale(0.015625)"/>
       </defs>
       <use xlink:href="#DejaVuSans-4d"/>
       <use xlink:href="#DejaVuSans-65" transform="translate(86.279297 0)"/>
       <use xlink:href="#DejaVuSans-61" transform="translate(147.802734 0)"/>
       <use xlink:href="#DejaVuSans-6e" transform="translate(209.082031 0)"/>
       <use xlink:href="#DejaVuSans-20" transform="translate(272.460938 0)"/>
       <use xlink:href="#DejaVuSans-77" transform="translate(304.248047 0)"/>
       <use xlink:href="#DejaVuSans-69" transform="translate(386.035156 0)"/>
       <use xlink:href="#DejaVuSans-6e" transform="translate(413.818359 0)"/>
       <use xlink:href="#DejaVuSans-64" transform="translate(477.197266 0)"/>
       <use xlink:href="#DejaVuSans-20" transform="translate(540.673828 0)"/>
       <use xlink:href="#DejaVuSans-73" transform="translate(572.460938 0)"/>
       <use xlink:href="#DejaVuSans-70" transform="translate(624.560547 0)"/>
       <use xlink:href="#DejaVuSans-65" transform="translate(688.037109 0)"/>
       <use xlink:href="#DejaVuSans-65" transform="translate(749.560547 0)"/>
       <use xlink:href="#DejaVuSans-64" transform="translate(811.083984 0)"/>
       <use xlink:href="#DejaVuSans-20" transform="translate(874.560547 0)"/>
       <use xlink:href="#DejaVuSans-70" transform="translate(906.347656 0)"/>
       <use xlink:href="#DejaVuSans-72" transform="translate(969.824219 0)"/>
       <use xlink:href="#DejaVuSans-2e" transform="translate(1001.8125 0)"/>
       <use xlink:href="#DejaVuSans-20" transform="translate(1033.599609 0)"/>
       <use xlink:href="#DejaVuSans-68" transform="translate(1065.386719 0)"/>
       <use xlink:href="#DejaVuSans-6f" transform="translate(1128.765625 0)"/>
       <use xlink:href="#DejaVuSans-75" transform="translate(1189.947266 0)"/>
       <use xlink:href="#DejaVuSans-72" transform="translate(1253.326172 0)"/>
       <use xlink:href="#DejaVuSans-20" transform="translate(1294.439453 0)"/>
       <use xlink:href="#DejaVuSans-28" transform="translate(1326.226562 0)"/>
       <use xlink:href="#DejaVuSans-6d" transform="translate(1365.240234 0)"/>
       <use xlink:href="#DejaVuSans-2f" transform="translate(1462.652344 0)"/>
       <use xlink:href="#DejaVuSans-73" transform="translate(1496.34375 0)"/>
       <use xlink:href="#DejaVuSans-29" transform="translate(1548.443359 0)"/>
      </g>
     </g>
    </g>
    <g id="ytick_2">
     <g id="line2d_7">
      <g>
       <use xlink:href="#ma27dc07f95" x="176.29" y="172.46" style="stroke: #000000; stroke-width: 0.8"/>
      </g>
     </g>
     <g id="text_8">
      <!-- Minutes of sun pr. hour (min) -->
      <g transform="translate(24.222812 176.259219) scale(0.1 -0.1)">
       <use xlink:href="#DejaVuSans-4d"/>
       <use xlink:href="#DejaVuSans-69" transform="translate(86.279297 0)"/>
       <use xlink:href="#DejaVuSans-6e" transform="translate(114.0625 0)"/>
       <use xlink:href="#DejaVuSans-75" transform="translate(177.441406 0)"/>
       <use xlink:href="#DejaVuSans-74" transform="translate(240.820312 0)"/>
       <use xlink:href="#DejaVuSans-65" transform="translate(280.029297 0)"/>
       <use xlink:href="#DejaVuSans-73" transform="translate(341.552734 0)"/>
       <use xlink:href="#DejaVuSans-20" transform="translate(393.652344 0)"/>
       <use xlink:href="#DejaVuSans-6f" transform="translate(425.439453 0)"/>
       <use xlink:href="#DejaVuSans-66" transform="translate(486.621094 0)"/>
       <use xlink:href="#DejaVuSans-20" transform="translate(521.826172 0)"/>
       <use xlink:href="#DejaVuSans-73" transform="translate(553.613281 0)"/>
       <use xlink:href="#DejaVuSans-75" transform="translate(605.712891 0)"/>
       <use xlink:href="#DejaVuSans-6e" transform="translate(669.091797 0)"/>
       <use xlink:href="#DejaVuSans-20" transform="translate(732.470703 0)"/>
       <use xlink:href="#DejaVuSans-70" transform="translate(764.257812 0)"/>
       <use xlink:href="#DejaVuSans-72" transform="translate(827.734375 0)"/>
       <use xlink:href="#DejaVuSans-2e" transform="translate(859.722656 0)"/>
       <use xlink:href="#DejaVuSans-20" transform="translate(891.509766 0)"/>
       <use xlink:href="#DejaVuSans-68" transform="translate(923.296875 0)"/>
       <use xlink:href="#DejaVuSans-6f" transform="translate(986.675781 0)"/>
       <use xlink:href="#DejaVuSans-75" transform="translate(1047.857422 0)"/>
       <use xlink:href="#DejaVuSans-72" transform="translate(1111.236328 0)"/>
       <use xlink:href="#DejaVuSans-20" transform="translate(1152.349609 0)"/>
       <use xlink:href="#DejaVuSans-28" transform="translate(1184.136719 0)"/>
       <use xlink:href="#DejaVuSans-6d" transform="translate(1223.150391 0)"/>
       <use xlink:href="#DejaVuSans-69" transform="translate(1320.5625 0)"/>
       <use xlink:href="#DejaVuSans-6e" transform="translate(1348.345703 0)"/>
       <use xlink:href="#DejaVuSans-29" transform="translate(1411.724609 0)"/>
      </g>
     </g>
    </g>
    <g id="ytick_3">
     <g id="line2d_8">
      <g>
       <use xlink:href="#ma27dc07f95" x="176.29" y="75.406667" style="stroke: #000000; stroke-width: 0.8"/>
      </g>
     </g>
     <g id="text_9">
      <!-- Mean temperature pr. hour (°C) -->
      <g transform="translate(11.063437 79.205885) scale(0.1 -0.1)">
       <defs>
        <path id="DejaVuSans-b0" d="M 1600 4347 
Q 1350 4347 1178 4173 
Q 1006 4000 1006 3750 
Q 1006 3503 1178 3333 
Q 1350 3163 1600 3163 
Q 1850 3163 2022 3333 
Q 2194 3503 2194 3750 
Q 2194 3997 2020 4172 
Q 1847 4347 1600 4347 
z
M 1600 4750 
Q 1800 4750 1984 4673 
Q 2169 4597 2303 4453 
Q 2447 4313 2519 4134 
Q 2591 3956 2591 3750 
Q 2591 3338 2302 3052 
Q 2013 2766 1594 2766 
Q 1172 2766 890 3047 
Q 609 3328 609 3750 
Q 609 4169 896 4459 
Q 1184 4750 1600 4750 
z
" transform="scale(0.015625)"/>
       </defs>
       <use xlink:href="#DejaVuSans-4d"/>
       <use xlink:href="#DejaVuSans-65" transform="translate(86.279297 0)"/>
       <use xlink:href="#DejaVuSans-61" transform="translate(147.802734 0)"/>
       <use xlink:href="#DejaVuSans-6e" transform="translate(209.082031 0)"/>
       <use xlink:href="#DejaVuSans-20" transform="translate(272.460938 0)"/>
       <use xlink:href="#DejaVuSans-74" transform="translate(304.248047 0)"/>
       <use xlink:href="#DejaVuSans-65" transform="translate(343.457031 0)"/>
       <use xlink:href="#DejaVuSans-6d" transform="translate(404.980469 0)"/>
       <use xlink:href="#DejaVuSans-70" transform="translate(502.392578 0)"/>
       <use xlink:href="#DejaVuSans-65" transform="translate(565.869141 0)"/>
       <use xlink:href="#DejaVuSans-72" transform="translate(627.392578 0)"/>
       <use xlink:href="#DejaVuSans-61" transform="translate(668.505859 0)"/>
       <use xlink:href="#DejaVuSans-74" transform="translate(729.785156 0)"/>
       <use xlink:href="#DejaVuSans-75" transform="translate(768.994141 0)"/>
       <use xlink:href="#DejaVuSans-72" transform="translate(832.373047 0)"/>
       <use xlink:href="#DejaVuSans-65" transform="translate(871.236328 0)"/>
       <use xlink:href="#DejaVuSans-20" transform="translate(932.759766 0)"/>
       <use xlink:href="#DejaVuSans-70" transform="translate(964.546875 0)"/>
       <use xlink:href="#DejaVuSans-72" transform="translate(1028.023438 0)"/>
       <use xlink:href="#DejaVuSans-2e" transform="translate(1060.011719 0)"/>
       <use xlink:href="#DejaVuSans-20" transform="translate(1091.798828 0)"/>
       <use xlink:href="#DejaVuSans-68" transform="translate(1123.585938 0)"/>
       <use xlink:href="#DejaVuSans-6f" transform="translate(1186.964844 0)"/>
       <use xlink:href="#DejaVuSans-75" transform="translate(1248.146484 0)"/>
       <use xlink:href="#DejaVuSans-72" transform="translate(1311.525391 0)"/>
       <use xlink:href="#DejaVuSans-20" transform="translate(1352.638672 0)"/>
       <use xlink:href="#DejaVuSans-28" transform="translate(1384.425781 0)"/>
       <use xlink:href="#DejaVuSans-b0" transform="translate(1423.439453 0)"/>
       <use xlink:href="#DejaVuSans-43" transform="translate(1473.439453 0)"/>
       <use xlink:href="#DejaVuSans-29" transform="translate(1543.263672 0)"/>
      </g>
     </g>
    </g>
   </g>
   <g id="line2d_9">
    <path d="M 370.745 318.04 
L 370.745 26.88 
" clip-path="url(#p130b9280ed)" style="fill: none; stroke: #000000; stroke-width: 0.8; stroke-linecap: square"/>
   </g>
   <g id="patch_6">
    <path d="M 176.29 318.04 
L 176.29 26.88 
" style="fill: none; stroke: #000000; stroke-width: 0.8; stroke-linejoin: miter; stroke-linecap: square"/>
   </g>
   <g id="patch_7">
    <path d="M 565.2 318.04 
L 565.2 26.88 
" style="fill: none; stroke: #000000; stroke-width: 0.8; stroke-linejoin: miter; stroke-linecap: square"/>
   </g>
   <g id="patch_8">
    <path d="M 176.29 318.04 
L 565.2 318.04 
" style="fill: none; stroke: #000000; stroke-width: 0.8; stroke-linejoin: miter; stroke-linecap: square"/>
   </g>
   <g id="patch_9">
    <path d="M 176.29 26.88 
L 565.2 26.88 
" style="fill: none; stroke: #000000; stroke-width: 0.8; stroke-linejoin: miter; stroke-linecap: square"/>
   </g>
   <g id="text_10">
    <!-- Correlation of Variables with Electricity Price -->
    <g transform="translate(237.755 20.88) scale(0.12 -0.12)">
     <defs>
      <path id="DejaVuSans-56" d="M 1831 0 
L 50 4666 
L 709 4666 
L 2188 738 
L 3669 4666 
L 4325 4666 
L 2547 0 
L 1831 0 
z
" transform="scale(0.015625)"/>
      <path id="DejaVuSans-62" d="M 3116 1747 
Q 3116 2381 2855 2742 
Q 2594 3103 2138 3103 
Q 1681 3103 1420 2742 
Q 1159 2381 1159 1747 
Q 1159 1113 1420 752 
Q 1681 391 2138 391 
Q 2594 391 2855 752 
Q 3116 1113 3116 1747 
z
M 1159 2969 
Q 1341 3281 1617 3432 
Q 1894 3584 2278 3584 
Q 2916 3584 3314 3078 
Q 3713 2572 3713 1747 
Q 3713 922 3314 415 
Q 2916 -91 2278 -91 
Q 1894 -91 1617 61 
Q 1341 213 1159 525 
L 1159 0 
L 581 0 
L 581 4863 
L 1159 4863 
L 1159 2969 
z
" transform="scale(0.015625)"/>
      <path id="DejaVuSans-45" d="M 628 4666 
L 3578 4666 
L 3578 4134 
L 1259 4134 
L 1259 2753 
L 3481 2753 
L 3481 2222 
L 1259 2222 
L 1259 531 
L 3634 531 
L 3634 0 
L 628 0 
L 628 4666 
z
" transform="scale(0.015625)"/>
      <path id="DejaVuSans-79" d="M 2059 -325 
Q 1816 -950 1584 -1140 
Q 1353 -1331 966 -1331 
L 506 -1331 
L 506 -850 
L 844 -850 
Q 1081 -850 1212 -737 
Q 1344 -625 1503 -206 
L 1606 56 
L 191 3500 
L 800 3500 
L 1894 763 
L 2988 3500 
L 3597 3500 
L 2059 -325 
z
" transform="scale(0.015625)"/>
      <path id="DejaVuSans-50" d="M 1259 4147 
L 1259 2394 
L 2053 2394 
Q 2494 2394 2734 2622 
Q 2975 2850 2975 3272 
Q 2975 3691 2734 3919 
Q 2494 4147 2053 4147 
L 1259 4147 
z
M 628 4666 
L 2053 4666 
Q 2838 4666 3239 4311 
Q 3641 3956 3641 3272 
Q 3641 2581 3239 2228 
Q 2838 1875 2053 1875 
L 1259 1875 
L 1259 0 
L 628 0 
L 628 4666 
z
" transform="scale(0.015625)"/>
     </defs>
     <use xlink:href="#DejaVuSans-43"/>
     <use xlink:href="#DejaVuSans-6f" transform="translate(69.824219 0)"/>
     <use xlink:href="#DejaVuSans-72" transform="translate(131.005859 0)"/>
     <use xlink:href="#DejaVuSans-72" transform="translate(170.369141 0)"/>
     <use xlink:href="#DejaVuSans-65" transform="translate(209.232422 0)"/>
     <use xlink:href="#DejaVuSans-6c" transform="translate(270.755859 0)"/>
     <use xlink:href="#DejaVuSans-61" transform="translate(298.539062 0)"/>
     <use xlink:href="#DejaVuSans-74" transform="translate(359.818359 0)"/>
     <use xlink:href="#DejaVuSans-69" transform="translate(399.027344 0)"/>
     <use xlink:href="#DejaVuSans-6f" transform="translate(426.810547 0)"/>
     <use xlink:href="#DejaVuSans-6e" transform="translate(487.992188 0)"/>
     <use xlink:href="#DejaVuSans-20" transform="translate(551.371094 0)"/>
     <use xlink:href="#DejaVuSans-6f" transform="translate(583.158203 0)"/>
     <use xlink:href="#DejaVuSans-66" transform="translate(644.339844 0)"/>
     <use xlink:href="#DejaVuSans-20" transform="translate(679.544922 0)"/>
     <use xlink:href="#DejaVuSans-56" transform="translate(711.332031 0)"/>
     <use xlink:href="#DejaVuSans-61" transform="translate(771.990234 0)"/>
     <use xlink:href="#DejaVuSans-72" transform="translate(833.269531 0)"/>
     <use xlink:href="#DejaVuSans-69" transform="translate(874.382812 0)"/>
     <use xlink:href="#DejaVuSans-61" transform="translate(902.166016 0)"/>
     <use xlink:href="#DejaVuSans-62" transform="translate(963.445312 0)"/>
     <use xlink:href="#DejaVuSans-6c" transform="translate(1026.921875 0)"/>
     <use xlink:href="#DejaVuSans-65" transform="translate(1054.705078 0)"/>
     <use xlink:href="#DejaVuSans-73" transform="translate(1116.228516 0)"/>
     <use xlink:href="#DejaVuSans-20" transform="translate(1168.328125 0)"/>
     <use xlink:href="#DejaVuSans-77" transform="translate(1200.115234 0)"/>
     <use xlink:href="#DejaVuSans-69" transform="translate(1281.902344 0)"/>
     <use xlink:href="#DejaVuSans-74" transform="translate(1309.685547 0)"/>
     <use xlink:href="#DejaVuSans-68" transform="translate(1348.894531 0)"/>
     <use xlink:href="#DejaVuSans-20" transform="translate(1412.273438 0)"/>
     <use xlink:href="#DejaVuSans-45" transform="translate(1444.060547 0)"/>
     <use xlink:href="#DejaVuSans-6c" transform="translate(1507.244141 0)"/>
     <use xlink:href="#DejaVuSans-65" transform="translate(1535.027344 0)"/>
     <use xlink:href="#DejaVuSans-63" transform="translate(1596.550781 0)"/>
     <use xlink:href="#DejaVuSans-74" transform="translate(1651.53125 0)"/>
     <use xlink:href="#DejaVuSans-72" transform="translate(1690.740234 0)"/>
     <use xlink:href="#DejaVuSans-69" transform="translate(1731.853516 0)"/>
     <use xlink:href="#DejaVuSans-63" transform="translate(1759.636719 0)"/>
     <use xlink:href="#DejaVuSans-69" transform="translate(1814.617188 0)"/>
     <use xlink:href="#DejaVuSans-74" transform="translate(1842.400391 0)"/>
     <use xlink:href="#DejaVuSans-79" transform="translate(1881.609375 0)"/>
     <use xlink:href="#DejaVuSans-20" transform="translate(1940.789062 0)"/>
     <use xlink:href="#DejaVuSans-50" transform="translate(1972.576172 0)"/>
     <use xlink:href="#DejaVuSans-72" transform="translate(2031.128906 0)"/>
     <use xlink:href="#DejaVuSans-69" transform="translate(2072.242188 0)"/>
     <use xlink:href="#DejaVuSans-63" transform="translate(2100.025391 0)"/>
     <use xlink:href="#DejaVuSans-65" transform="translate(2155.005859 0)"/>
    </g>
   </g>
   <g id="legend_1">
    <g id="patch_10">
     <path d="M 439.610937 313.04 
L 558.2 313.04 
Q 560.2 313.04 560.2 311.04 
L 560.2 297.361875 
Q 560.2 295.361875 558.2 295.361875 
L 439.610937 295.361875 
Q 437.610937 295.361875 437.610937 297.361875 
L 437.610937 311.04 
Q 437.610937 313.04 439.610937 313.04 
z
" style="fill: #ffffff; opacity: 0.8; stroke: #cccccc; stroke-linejoin: miter"/>
    </g>
    <g id="patch_11">
     <path d="M 441.610937 306.960312 
L 461.610937 306.960312 
L 461.610937 299.960312 
L 441.610937 299.960312 
z
" style="fill: #002546; stroke: #002546; stroke-linejoin: miter"/>
    </g>
    <g id="text_11">
     <!-- Weather features -->
     <g transform="translate(469.610937 306.960312) scale(0.1 -0.1)">
      <defs>
       <path id="DejaVuSans-57" d="M 213 4666 
L 850 4666 
L 1831 722 
L 2809 4666 
L 3519 4666 
L 4500 722 
L 5478 4666 
L 6119 4666 
L 4947 0 
L 4153 0 
L 3169 4050 
L 2175 0 
L 1381 0 
L 213 4666 
z
" transform="scale(0.015625)"/>
      </defs>
      <use xlink:href="#DejaVuSans-57"/>
      <use xlink:href="#DejaVuSans-65" transform="translate(93.001953 0)"/>
      <use xlink:href="#DejaVuSans-61" transform="translate(154.525391 0)"/>
      <use xlink:href="#DejaVuSans-74" transform="translate(215.804688 0)"/>
      <use xlink:href="#DejaVuSans-68" transform="translate(255.013672 0)"/>
      <use xlink:href="#DejaVuSans-65" transform="translate(318.392578 0)"/>
      <use xlink:href="#DejaVuSans-72" transform="translate(379.916016 0)"/>
      <use xlink:href="#DejaVuSans-20" transform="translate(421.029297 0)"/>
      <use xlink:href="#DejaVuSans-66" transform="translate(452.816406 0)"/>
      <use xlink:href="#DejaVuSans-65" transform="translate(488.021484 0)"/>
      <use xlink:href="#DejaVuSans-61" transform="translate(549.544922 0)"/>
      <use xlink:href="#DejaVuSans-74" transform="translate(610.824219 0)"/>
      <use xlink:href="#DejaVuSans-75" transform="translate(650.033203 0)"/>
      <use xlink:href="#DejaVuSans-72" transform="translate(713.412109 0)"/>
      <use xlink:href="#DejaVuSans-65" transform="translate(752.275391 0)"/>
      <use xlink:href="#DejaVuSans-73" transform="translate(813.798828 0)"/>
     </g>
    </g>
   </g>
  </g>
 </g>
 <defs>
  <clipPath id="p130b9280ed">
   <rect x="176.29" y="26.88" width="388.91" height="291.16"/>
  </clipPath>
 </defs>
</svg>
